<svg width="17" height="24" viewBox="0 0 17 24" fill="none" xmlns="http://www.w3.org/2000/svg">
<path d="M16.3892 1.37817C16.4732 1.48239 16.512 1.61597 16.4967 1.749C16.4815 1.88203 16.4135 2.00339 16.3081 2.08589L3.63589 11.9995L16.3076 21.8899C16.4127 21.9719 16.4807 22.0924 16.4965 22.2248C16.5123 22.3571 16.4746 22.4902 16.3918 22.5947L15.8244 23.3106C15.6538 23.5258 15.3416 23.5632 15.125 23.3942L1.02577 12.3942C0.904306 12.2995 0.833309 12.154 0.833333 11.9999C0.833357 11.8459 0.904401 11.7004 1.0259 11.6057L15.1343 0.605687C15.3495 0.437877 15.6596 0.473658 15.8309 0.686083L16.3892 1.37817Z" fill="white" stroke="white" stroke-linecap="round" stroke-linejoin="round"/>
</svg>
