<svg version="1" xmlns="http://www.w3.org/2000/svg" width="933.333" height="933.333" viewBox="0 0 700.000000 700.000000"><path d="M325 33l-91.5.5-3.7 2.3c-4.8 3-8.3 7.2-10 11.9-1.1 3.1-1.3 55.8-1.3 302.3 0 286 .1 298.7 1.8 303.2 2 5.1 7.1 10.2 12.3 12.4 2.8 1.2 35.3 1.4 199.4 1.4 175 0 196.5-.2 199.8-1.6 4.7-1.9 8.8-5.8 11.5-10.9l2.2-4v-601l-2.2-4c-2.7-5.1-6.7-8.9-11.8-11.2-3.8-1.7-10-1.8-109.5-1.8-58 0-146.7.2-197 .5zm119.4 176.2c5.3 1.6 12.1 8.4 13.5 13.4.6 2.2 1.1 7.2 1.1 11.1v7.3h7.1c9.6 0 14.6 1.7 19.4 6.5 6.7 6.7 8.2 15.3 4.1 24.1-2.2 4.8-6.4 8.9-11.1 11-1.1.5-17.1 1.1-35.5 1.4-33.4.5-33.5.5-38 3-6.9 3.9-10.4 9.6-10.8 17.9-.5 7.6 1.4 12.5 6.5 17.2 5.5 5.2 7.5 5.6 28.3 6.2 16.4.4 20.6.8 26.5 2.7 18.7 5.9 31.8 16.8 40 33 6 12 7 16.7 7 35 0 14.5-.3 17.4-2.3 24-5.5 17.6-17.9 32.4-33.5 39.9-8.5 4.2-19.1 7.1-25.9 7.1h-3.6l-.4 9.4c-.3 8.6-.6 9.8-3.3 13.8-4.4 6.3-12.2 10.1-19.4 9.4-7.7-.7-13.8-4.7-17.3-11.5-2.4-4.5-2.8-6.5-2.8-13.2V470h-7.9c-6.7 0-8.7-.4-13.2-2.8-14.5-7.5-15.6-27.2-2.1-36.7l4.4-3 34.1-.5c34.2-.5 34.2-.5 38.7-3 8.2-4.6 11.9-12.4 12-25.1 0-9.2-2.1-15.7-6.7-20.1-6.5-6.2-7.9-6.5-28.8-7.1-20.5-.5-26.4-1.6-37-6.6-25.3-11.9-40.6-40.3-36.5-67.6 2.4-15.9 9.3-29 20.8-39.6 10.6-9.7 27.7-16.8 40.5-16.9h3.7v-7.3c0-9.9 1.4-14.2 6.3-19.1 6.2-6.1 13.5-7.9 22.1-5.4z"/></svg>